<svg xmlns="http://www.w3.org/2000/svg" viewBox="0 0 256 256" role="img" aria-labelledby="title desc">
  <title id="title">Canary Star</title><desc id="desc">A sparkling star-shaped canary melon with rosy cheeks.</desc>
  <rect width="256" height="256" rx="56" fill="#E8F1F8"/>
  <path d="m39 46 5 13 13 5-13 5-5 13-5-13-13-5 13-5zM213 166l4 11 11 4-11 4-4 11-4-11-11-4 11-4z" fill="#FFF"/>
  <path d="m128 26 25 53 58 7-43 40 12 58-52-29-52 29 12-58-43-40 58-7z" fill="#F6D866" stroke="#5C5531" stroke-width="9" stroke-linejoin="round"/>
  <path d="m128 45 19 43 46 5-35 31 10 45-40-23-40 23 10-45-35-31 46-5z" fill="#FFF0A5" opacity=".55"/>
  <ellipse cx="104" cy="112" rx="7" ry="10" fill="#4A452F"/><ellipse cx="152" cy="112" rx="7" ry="10" fill="#4A452F"/>
  <path d="M111 133c10 12 24 12 34 0" fill="none" stroke="#4A452F" stroke-width="7" stroke-linecap="round"/>
  <ellipse cx="87" cy="132" rx="12" ry="7" fill="#F3A998" opacity=".75"/><ellipse cx="169" cy="132" rx="12" ry="7" fill="#F3A998" opacity=".75"/>
  <path d="M128 28c-1-13 5-21 16-26M144 12c15-6 28-1 33 9-11 11-24 11-34 4" fill="#8CB369" stroke="#5C5531" stroke-width="6" stroke-linecap="round" stroke-linejoin="round"/>
  <ellipse cx="128" cy="221" rx="68" ry="12" fill="#B8D5DF" opacity=".5"/>
</svg>
