<svg xmlns="http://www.w3.org/2000/svg" viewBox="0 0 256 256" role="img" aria-labelledby="title desc">
  <title id="title">Crenshaw Koala</title><desc id="desc">A sleepy koala hugging a pale Crenshaw melon.</desc>
  <rect width="256" height="256" rx="56" fill="#F3EBDD"/><circle cx="66" cy="91" r="38" fill="#94A3A2" stroke="#4D5654" stroke-width="8"/><circle cx="190" cy="91" r="38" fill="#94A3A2" stroke="#4D5654" stroke-width="8"/><circle cx="66" cy="91" r="19" fill="#CCD4CE"/><circle cx="190" cy="91" r="19" fill="#CCD4CE"/>
  <ellipse cx="128" cy="132" rx="73" ry="81" fill="#A8B4B1" stroke="#4D5654" stroke-width="8"/><path d="M94 127c8 7 16 7 24 0M138 127c8 7 16 7 24 0" fill="none" stroke="#3F4746" stroke-width="7" stroke-linecap="round"/>
  <ellipse cx="128" cy="151" rx="17" ry="21" fill="#49504F"/><path d="M128 171c-7 8-15 8-22 2M128 171c7 8 15 8 22 2" fill="none" stroke="#49504F" stroke-width="5" stroke-linecap="round"/>
  <ellipse cx="128" cy="205" rx="51" ry="37" fill="#E7CB7A" stroke="#4D5654" stroke-width="8"/><path d="M96 188c20 8 43 8 64 0M92 206c24 9 48 9 72 0M109 174c-5 23-4 44 3 64M145 174c5 23 4 44-3 64" fill="none" stroke="#FFF0B2" stroke-width="6" stroke-linecap="round"/>
  <path d="M128 169c-1-12 4-20 14-26M142 153c14-6 27-2 33 8-11 11-24 11-34 4" fill="#829E5D" stroke="#4D5654" stroke-width="5" stroke-linecap="round"/>
</svg>
