<svg xmlns="http://www.w3.org/2000/svg" viewBox="0 0 256 256" role="img" aria-labelledby="title desc">
  <title id="title">Melon Splash</title><desc id="desc">A cheerful watermelon slice surfing on a blue splash.</desc>
  <rect width="256" height="256" rx="56" fill="#DDF3EE"/><circle cx="205" cy="45" r="24" fill="#FFE49A"/>
  <path d="M19 205c26-43 57-39 84-12 27 27 56 24 84-4 16-17 33-18 50-2v50H19z" fill="#76C8CC"/>
  <path d="M29 211c29-20 51-14 70 5 23 23 52 21 80-5 20-18 38-18 57-3" fill="none" stroke="#FFF" stroke-width="10" stroke-linecap="round" opacity=".9"/>
  <g stroke="#3E5946" stroke-width="8" stroke-linejoin="round" stroke-linecap="round">
    <path d="M56 166c12-63 51-101 111-112 7 59-13 108-60 143z" fill="#F77978"/>
    <path d="M56 166c12 13 29 23 51 31 47-35 67-84 60-143-7 49-32 85-74 108-15 8-27 9-37 4z" fill="#B9DC76"/>
    <path d="M69 163c10 9 23 16 39 21 34-27 50-65 49-112" fill="none" stroke="#F6F3CE" stroke-width="12"/>
  </g>
  <g fill="#3E5946"><ellipse cx="105" cy="119" rx="5" ry="9" transform="rotate(-20 105 119)"/><ellipse cx="137" cy="98" rx="5" ry="9" transform="rotate(-20 137 98)"/></g>
  <path d="M106 145c12 7 25 3 31-8" fill="none" stroke="#3E5946" stroke-width="7" stroke-linecap="round"/><ellipse cx="92" cy="141" rx="11" ry="6" fill="#F3A6A0" opacity=".75"/>
</svg>
